<?xml version="1.0" encoding="UTF-8"?><svg id="uuid-83bd873c-4cc5-444d-b7d8-398294144680" xmlns="http://www.w3.org/2000/svg" width="183.1" height="172.48" viewBox="0 0 183.1 172.48"><path d="m68.98,48.58c-3.45,6.18-19.91,32.37-23.36,38.55,8.71-8.42,18.87-12.42,30.49-7.52,5.29,2.23,12.71,9.48,17.47,12.97-2.65-5.13-24.6-44-24.6-44Z" style="fill:#4d8997; stroke-width:0px;"/><path d="m115.57,68.59c-5.61-.04-11.23-.08-16.84-.12,5.59-.14,11.19-.28,16.78-.42,4.4.03,8.8.07,13.2.1-4.38.15-8.76.3-13.14.44Z" style="fill:#265865; stroke-width:0px;"/><path d="m126.47,87.94c-.18-.27-.37-.54-.55-.81.18.27.37.54.55.81Z" style="fill:#4d8997; stroke-width:0px;"/><path d="m142.3,115.66c-.16-.3-.33-.6-.49-.9.16.3.33.6.49.9Z" style="fill:#29415b; stroke-width:0px;"/><path d="m60.68,124.35c.13-.17.26-.34.39-.51-.13.17-.26.34-.39.51Z" style="fill:#63baae; stroke-width:0px;"/><path d="m126.82,88.46c-.11-.17-.23-.34-.34-.51.11.17.23.34.34.51Z" style="fill:#4d8997; stroke-width:0px;"/><path d="m23.46,126.55c-.15-.16-.31-.31-.46-.47.15.16.31.31.46.47Z" style="fill:#63baae; stroke-width:0px;"/><path d="m81.07,89.85c-.15.19-.29.38-.44.57.15-.19.29-.38.44-.57Z" style="fill:#4d8997; stroke-width:0px;"/><path d="m115.51,68.05c-5.59.14-11.19.28-16.78.42-.91,0-1.83,0-2.74,0-3.75-.08-2.26-2.01-1.28-3.7,3.29-5.7,6.61-11.39,9.91-17.08,3.33,6.27,6.65,12.54,9.98,18.8.28.53.61,1.03.91,1.55Z" style="fill:#233d55; stroke-width:0px;"/><path d="m86.79,55.97c-2.88-4.6-6.27-8.98-8.42-13.9-1.16-2.64-1.27-6.76,0-9.28,5.14-10.25,10.95-20.16,16.6-30.14,1.7-3,4.32-3.25,7.2-1.74,15.79,8.26,22.31,28.03,14.6,44.18-2.17,3.83-4.34,7.65-6.51,11.48-.6.02-1.2.05-1.8.04-7.09-.14-14.19-.29-21.28-.43-.11-.1-.24-.16-.39-.2Z" style="fill:#1c293e; stroke-width:0px;"/><path d="m182.83,34.23c-.1-3.25-1.8-5.42-5.73-5.45-13.09-.07-144.98.29-176.66.14-1.45,1.6,12.44,19.58,30.76,19.66h37.78c31.21,5.22,54.8,19.86,61.81,19.77l40.88.03c5.62,0,10.3-4.27,10.84-9.87.53-5.46.86-13.4.32-24.28Z" style="fill:#1c293f; stroke-width:0px;"/><path d="m91.65,91.66c8.91-13.25,9.36-19.8,7.08-23.19-6.02-8.95-37.39-5.2-49.66,12.48-1.54,2.22-19.66,34.68-19.66,34.68.39,7.59,5.31,11.81,11.57,14.46,11.38,4.82,21.88,2.98,31.14-5.33,6.51-11.03,13.02-22.07,19.52-33.1Z" style="fill:#385c7f; stroke-width:0px;"/><path d="m21.29,129.77c-6.92,11.94-13.88,23.86-20.74,35.83-1.63,2.85.56,6.68,3.94,6.72,11.92.12,23.85.1,35.78,0,1.1,0,2.19-.85,3.28-1.3-.02-.35-.13-.73-.05-1.06,4.28-17.14-3.98-32.66-20.46-38.55-.69-.25-1.17-1.08-1.75-1.65Z" style="fill:#385c7f; stroke-width:0px;"/><path d="m21.29,129.77c.58.56,1.06,1.4,1.75,1.65,16.48,5.89,24.74,21.41,20.46,38.55-.08.33.03.7.05,1.06,1.21-.98,2.83-1.72,3.56-2.98,8.41-14.38,16.69-28.84,25.01-43.28-9.26,8.31-19.76,10.15-31.14,5.33-6.26-2.65-11.18-6.87-11.57-14.46-2.71,4.71-5.41,9.42-8.12,14.13Z" style="fill:#29415b; stroke-width:0px;"/><path d="m153.43,115.24c-7.69-13.63-15.38-27.27-23.07-40.9-3.95,11.93-19.2,18.45-33.18,14.42-4.3-1.24-3.62-2.74-1.38-5.54,5.97-7.44,13.46-12.36,22.69-14.66-13.13,0-24.96.16-38.09.16,1.11,1.97,31.62,61.46,33.32,62.55,11.14,7.16,23.76,2.64,34.25-4.73h.01c.15-.15.31-.3.46-.46,1.66-3.61,3.32-7.22,4.99-10.84Z" style="fill:#3ba79e; stroke-width:0px;"/><path d="m183.1,48.39c-.31-4.49-.22,1.9-.11,11.18.06,5.01-4.02,9.08-9.03,9.02-10.03-.12-26.07-.26-36.24-.09-28.26.48-32.44-.02-50.8.05-2.9.01-11.68-18.87-8.55-20.49,29.18.51,99.85.45,104.73.33Z" style="fill:#265865; stroke-width:0px;"/><path d="m139.38,170.98c1.47.46,2.94,1.3,4.41,1.31,11.24.11,22.48.07,33.72.05,4.52-.01,6.66-3.4,4.43-7.32-6.55-11.51-13.24-22.93-19.88-34.39-4.38,2.28-8.76,4.56-13.14,6.84-5.2,5.17-9.48,11.03-10.19,18.46-.47,4.95.38,10.03.64,15.05Z" style="fill:#9cd0c8; stroke-width:0px;"/><path d="m139.38,170.98c-.26-5.02-1.11-10.1-.64-15.05.71-7.43,4.99-13.29,10.19-18.46-.31-1.21-.82-2.41-.89-3.64-.15-2.42-.06-4.86-.07-7.3-10.49,7.37-21.27,8.65-32.41,1.48-1.7-1.09-3.22-2.45-4.82-3.69,6.84,12.03,13.56,24.14,20.6,36.05,2.24,3.79,5.33,7.08,8.03,10.59Z" style="fill:#63baae; stroke-width:0px;"/><path d="m127.2,68.58c-2.9-.01-5.8-.02-8.7-.03-9.24,2.3-16.72,7.22-22.69,14.66-2.24,2.8-2.92,4.3,1.38,5.54,13.98,4.03,29.23-2.49,33.18-14.42-1.05-1.92-2.1-3.84-3.15-5.76Z" style="fill:#32918c; stroke-width:0px;"/><path d="m147.97,126.54c0,2.43-.08,4.87.07,7.3.07,1.23.58,2.43.89,3.64,4.38-2.28,8.76-4.56,13.14-6.84-2.88-5.13-5.76-10.26-8.64-15.4-1.66,3.61-3.32,7.22-4.99,10.84-.15.16-.31.31-.46.47h-.01Z" style="fill:#69bbb1; stroke-width:0px;"/><path d="m124.79,126.84s0-.01-.01-.02c0,0,0,0,0,0,0,0,0,.02,0,.02Z" style="fill:#1d2a40; stroke-width:0px;"/><path d="m131.3,138.17c5.56,9.58,11.14,19.15,16.65,28.77,1.31,2.29-.45,5.37-3.17,5.39-9.57.1,5.74.08-3.84,0-.88,0-1.76-.68-2.64-1.05.02-.28.11-.59.04-.85-3.43-13.76-21.69-26.22-8.46-30.95.55-.2.94-.87,1.4-1.32Z" style="fill:#385c7f; stroke-width:0px;"/><path d="m161.42,172.36c.07.26-23.02,0-23.02,0-6.76-11.55-23.02-38.21-23.02-38.21,9.77,2.71,19.4-7.33,19.4-7.33,2.17,3.78,26.64,45.53,26.64,45.53Z" style="fill:#29415b; stroke-width:0px;"/><path d="m47.35,132.11s0-.01.01-.02c0,0,0,0,0,0,0,0-.01.02-.01.02Z" style="fill:#29415b; stroke-width:0px;"/><path d="m96.47,48.39c-4.79,8.47-63.89,111.39-68.5,119.44-1.1,1.92.38,4.49,2.65,4.51.71,0,1.25.01,1.66.02.4,0,.9,0,1.55-.01.74,0,14.54.01,14.54.01,5.36-9.15,64.32-112.83,70.34-123.8l-22.24-.17Z" style="fill:#29415b; stroke-width:0px;"/><path d="m32.28,172.36c-4.07.04,3.87.05,0,0h0Z" style="fill:#29415b; stroke-width:0px;"/><path d="m88.44,41.44c4.11,7.27,37.62,70.36,45.13,83.29,1.01,1.74,1.04,3.92-.05,5.6-3.08,4.75-11.11,8.76-17.09,4.65-.66-.45-1.19-1.05-1.58-1.74-6.52-11.26-36.19-67.19-45.86-84.66-1.51-2.72,6.54-6.3,9.38-6.52l10.07-.62Z" style="fill:#1d2a40; stroke-width:0px;"/><path d="m35.09,172.34c10.22-.85,19.67-11.12,30.5-30.11,4.65-8.15,2.83-5.34,7.64-13.26,1.67-2.75.49-9.73-4.43-12.72-4.06-2.47-11.35.27-12.77,2.71l-30.89,53.52,9.96-.14Z" style="fill:#1d2a40; stroke-width:0px;"/></svg>