<?xml version="1.0" encoding="UTF-8"?><svg id="uuid-b275ff0d-8706-409d-ab4f-a75e1a4f3230" xmlns="http://www.w3.org/2000/svg" width="183.1" height="172.48" xmlns:xlink="http://www.w3.org/1999/xlink" viewBox="0 0 183.1 172.48"><defs><linearGradient id="uuid-5dca65d4-8b62-43d5-84c1-d3ef669d09a5" x1="51.31" y1="161.8" x2="102.32" y2="73.02" gradientUnits="userSpaceOnUse"><stop offset="0" stop-color="#3fb6b0"/><stop offset=".07" stop-color="#5cc5be"/><stop offset=".15" stop-color="#78d3cc"/><stop offset=".24" stop-color="#8fe0d8"/><stop offset=".34" stop-color="#a1e9e1"/><stop offset=".47" stop-color="#aef0e7"/><stop offset=".63" stop-color="#b5f3ea"/><stop offset="1" stop-color="#b8f5ec"/></linearGradient><linearGradient id="uuid-d857bd6d-858a-407e-829d-1ade79a76b00" x1="-.01" y1="59.58" x2="183.1" y2="59.58" gradientUnits="userSpaceOnUse"><stop offset="0" stop-color="#2d4164"/><stop offset=".47" stop-color="#2d4164" stop-opacity=".94"/><stop offset="1" stop-color="#2d4164" stop-opacity=".8"/></linearGradient><linearGradient id="uuid-fef1c54f-0a54-4790-ab61-d9a9f5d989aa" x1="71.68" y1="31.06" x2="111.41" y2="31.06" gradientUnits="userSpaceOnUse"><stop offset="0" stop-color="#2d4164"/><stop offset=".28" stop-color="#2c4365"/><stop offset="1" stop-color="#588ac1"/></linearGradient><linearGradient id="uuid-0f2fb12c-301d-42b6-bb7d-b60d1c02407f" x1="76.66" y1="69.37" x2="183.1" y2="69.37" gradientUnits="userSpaceOnUse"><stop offset="0" stop-color="#34798a" stop-opacity=".7"/><stop offset="1" stop-color="#62c4dd"/></linearGradient><linearGradient id="uuid-5d26301b-551c-4fc4-8c5e-e8f9e8246624" x1="54.34" y1="146.48" x2="88.72" y2="146.48" xlink:href="#uuid-fef1c54f-0a54-4790-ab61-d9a9f5d989aa"/><linearGradient id="uuid-3222a31e-6088-492b-9b53-cfaca2805265" x1="53.53" y1="99.07" x2="107.32" y2="99.07" xlink:href="#uuid-fef1c54f-0a54-4790-ab61-d9a9f5d989aa"/></defs><path d="m87.41,59.48l-61.18,106.11c-1.63,2.85.6,6.85,3.98,6.88h37.88l63.56-112.75-44.23-.25Z" style="fill:url(#uuid-5dca65d4-8b62-43d5-84c1-d3ef669d09a5); stroke-width:0px;"/><path d="m40.39,141.03c.29.28,1.01,2.7,1.61,4.91.67,2.49,2.77,4.38,5.33,4.68,21.2,2.5,21.4,20.71,21.4,20.71l22.5-39.92c-23.71,14.02-41.88,6.43-40.64-8.09-2.71,4.71-7.5,12.99-10.21,17.7Z" style="fill:#3a5c80; stroke-width:0px;"/><path d="m75.5,80.4s-14.96,25.41-18.41,31.59c8.71-8.42,17.69,2.79,24.11-8.66,8.13-14.5-5.7-22.93-5.7-22.93Z" style="fill:#60abbc; stroke-width:0px;"/><path d="m113.82,172.48h38.28c4.52-.01,6.66-3.57,4.43-7.48-6.55-11.51-59.96-105.41-59.96-105.41l-43.04-.37,60.29,113.27Z" style="fill:#b8f5ec; stroke-width:0px;"/><path d="m106.47,91.98c-9.24,2.3-34.69,12.42-21.32,20.21,12.57,7.31,28.11.2,32.05-11.73,1.79-4.66-2.29-10.67-10.74-8.47Z" style="fill:#3fb6b0; stroke-width:0px;"/><path d="m137.32,131.2l-13.09-23.07c.37,24.63-35.5,17.21-35.5,17.21l24.95,46.87c-1-25.77,10.54-35.8,23.65-41Z" style="fill:#7ee0d4; stroke-width:0px;"/><path d="m57.35,132.11s0-.01.01-.02c0,0,0,0,0,0" style="fill:#3a5c80; stroke-width:0px;"/><path d="m183.1,52.52c-.1-3.25-2.07-5.56-6-5.59C164,46.86-.01,46.93-.01,46.93l26.02,25.33h157.09v-19.75Z" style="fill:url(#uuid-d857bd6d-858a-407e-829d-1ade79a76b00); stroke-width:0px;"/><path d="m71.68,47s19.67-31.93,27.9-31.9c10.36,0,15.93,31.9,8.24,31.83l-36.15.07Z" style="fill:url(#uuid-fef1c54f-0a54-4790-ab61-d9a9f5d989aa); stroke-width:0px;"/><path d="m183.1,59.91l-.13,10.94c.07,6.28-2.04,8.39-8.33,8.31h-97.99l10.97-19.59,95.47.33Z" style="fill:url(#uuid-0f2fb12c-301d-42b6-bb7d-b60d1c02407f); opacity:.78; stroke-width:0px;"/><path d="m48.09,132.09s-.01.02-.01.02" style="fill:#3a5c80; stroke-width:0px;"/><path d="m117.54,47s-65.24,112.78-69.85,120.82c-1.1,1.92.38,4.63,2.65,4.65.71,0,17.74,0,17.74,0l70.73-125.47h-21.27Z" style="fill:#3a5c80; opacity:.8; stroke-width:0px;"/><path d="m84.52,142.79c.55-.64.79-1.48,1.27-2.18,10.98-16.02-12.03-16.74-17.61-8.28l-12.79,23.17c-.14.24-.26.48-.38.72-3.39,7.29,6.71,13.38,11.92,7.26l17.59-20.69Z" style="fill:url(#uuid-5d26301b-551c-4fc4-8c5e-e8f9e8246624); opacity:.8; stroke-width:0px;"/><path d="m124.71,126.57s0-.01-.01-.02c0,0,0,0,0,0,0,0,0,.02,0,.02Z" style="fill:#2e4365; stroke-width:0px;"/><polygon points="136.69 172.48 113.82 172.48 53.53 59.21 73.24 59.32 136.69 172.48" style="fill:#3a5c80; stroke-width:0px;"/><path d="m73.24,59.32l33.58,59.9c2.82,7.65-7.17,26.67-12.28,17.06L53.53,59.21l19.71.11Z" style="fill:url(#uuid-3222a31e-6088-492b-9b53-cfaca2805265); stroke-width:0px;"/><path d="m115.87,135.34l18.22,32.5s-36.61-14.66-18.22-32.5Z" style="fill:#4977a4; stroke-width:0px;"/><polygon points="12.89 59.48 26 72.26 80.52 72.26 87.63 59.58 12.89 59.48" style="fill:#3a5c80; opacity:.8; stroke-width:0px;"/></svg>