<?xml version="1.0" encoding="UTF-8"?><svg id="uuid-7121d0a3-ec7e-44bd-9704-13acffffa09b" xmlns="http://www.w3.org/2000/svg" width="183.1" height="172.48" xmlns:xlink="http://www.w3.org/1999/xlink" viewBox="0 0 183.1 172.48"><defs><linearGradient id="uuid-50fd0d90-fa66-4359-a57a-0a934fb951d7" x1="0" y1="59.58" x2="183.1" y2="59.58" gradientUnits="userSpaceOnUse"><stop offset="0" stop-color="#2d4164"/><stop offset=".47" stop-color="#2d4164" stop-opacity=".94"/><stop offset="1" stop-color="#2d4164" stop-opacity=".8"/></linearGradient><linearGradient id="uuid-7a8afeac-e991-4b03-99b8-0d797b373dfb" x1="71.68" y1="31.06" x2="111.41" y2="31.06" gradientUnits="userSpaceOnUse"><stop offset="0" stop-color="#2d4164"/><stop offset=".28" stop-color="#2c4365"/><stop offset="1" stop-color="#588ac1"/></linearGradient><linearGradient id="uuid-8374358b-744f-40ca-bb53-3a1470d47e71" x1="81.4" y1="129.46" x2="127.22" y2="50.28" gradientUnits="userSpaceOnUse"><stop offset=".2" stop-color="#456399"/><stop offset="1" stop-color="#3a5c80" stop-opacity=".7"/></linearGradient><linearGradient id="uuid-4aa5796a-656e-4dce-beb2-6bc1125fd4b4" x1="86.16" y1="99.24" x2="47.06" y2="25.85" gradientUnits="userSpaceOnUse"><stop offset=".2" stop-color="#456399"/><stop offset="1" stop-color="#3a5c80" stop-opacity=".7"/></linearGradient></defs><path d="m57.35,132.11s0-.01.01-.02c0,0,0,0,0,0" style="fill:#3a5c80; stroke-width:0px;"/><path d="m183.1,52.52c-.1-3.25-2.07-5.56-6-5.59-13.09-.07-163.15,0-163.15,0L0,72.26h183.1v-19.75Z" style="fill:url(#uuid-50fd0d90-fa66-4359-a57a-0a934fb951d7); stroke-width:0px;"/><path d="m71.68,47s19.67-31.93,27.9-31.9c10.36,0,15.93,31.9,8.24,31.83l-36.15.07Z" style="fill:url(#uuid-7a8afeac-e991-4b03-99b8-0d797b373dfb); stroke-width:0px;"/><polygon points="7.1 59.58 0 72.26 80.52 72.26 87.63 59.58 7.1 59.58" style="fill:#3a5c80; opacity:.8; stroke-width:0px;"/><path d="m117.54,47s-65.24,112.78-69.85,120.82c-1.1,1.92.38,4.63,2.65,4.65.71,0,17.74,0,17.74,0l70.73-125.47h-21.27Z" style="fill:url(#uuid-8374358b-744f-40ca-bb53-3a1470d47e71); opacity:.8; stroke-width:0px;"/><path d="m124.71,126.57s0-.01-.01-.02c0,0,0,0,0,0,0,0,0,.02,0,.02Z" style="fill:#2e4365; stroke-width:0px;"/><polygon points="136.69 172.48 113.82 172.48 53.53 59.58 73.24 59.58 136.69 172.48" style="fill:url(#uuid-4aa5796a-656e-4dce-beb2-6bc1125fd4b4); opacity:.75; stroke-width:0px;"/></svg>