<?xml version="1.0" encoding="UTF-8"?><svg id="uuid-bef89f04-a644-438d-a462-761e3d73d44e" xmlns="http://www.w3.org/2000/svg" width="183.1" height="172.48" xmlns:xlink="http://www.w3.org/1999/xlink" viewBox="0 0 183.1 172.48"><defs><linearGradient id="uuid-bba88481-67d6-4d0e-966d-e325c4ee82d8" x1="56.03" y1="98.49" x2="110.73" y2="98.49" gradientUnits="userSpaceOnUse"><stop offset="0" stop-color="#1c293f"/><stop offset=".28" stop-color="#1c2a40"/><stop offset="1" stop-color="#29415b"/></linearGradient></defs><path d="m80.99,71.71s-47.57,81.91-54.43,93.89c-1.63,2.85.6,6.85,3.98,6.88h36.83l56.43-100.12-42.8-.65Z" style="fill:#385c7f; stroke-width:0px;"/><path d="m47.29,129.77c.58.56,1.06,1.4,1.75,1.65,25.1.7,25.58,28.1,25.58,28.1l23.37-41.63c-23.71,14.02-40.8,6.85-39.55-7.67-2.71,4.71-8.44,14.84-11.15,19.55Z" style="fill:#29415b; stroke-width:0px;"/><path d="m75.83,80.4s-14.96,25.41-18.41,31.59c8.71-8.42,17.69,2.79,24.11-8.66,8.13-14.5-5.7-22.93-5.7-22.93Z" style="fill:#4d8997; stroke-width:0px;"/><path d="m117.09,172.48h39.33c4.52-.01,6.66-3.57,4.43-7.48-6.55-11.51-60.87-107.26-60.87-107.26h-43.95l61.06,114.74Z" style="fill:#9cd0c8; stroke-width:0px;"/><path d="m110.8,91.98c-9.24,2.3-34.69,12.42-21.32,20.21,12.57,7.31,28.11.2,32.05-11.73,1.79-4.66-2.29-10.67-10.74-8.47Z" style="fill:#32918c; stroke-width:0px;"/><path d="m141.65,131.2l-13.09-23.07c.37,24.63-36.51,17.32-36.51,17.32l25.04,47.04c-1-25.77,11.45-36.07,24.56-41.28Z" style="fill:#69bbb1; stroke-width:0px;"/><path d="m57.35,132.11s0-.01.01-.02c0,0,0,0,0,0" style="fill:#29415b; stroke-width:0px;"/><path d="m183.1,52.52c-.1-3.25-2.07-5.56-6-5.59C164,46.86-.01,46.93-.01,46.93c-.44,19.87,8.89,25.25,27.22,25.33h155.9v-19.75Z" style="fill:#1c293f; stroke-width:0px;"/><path d="m73.2,47s19.67-31.93,27.9-31.9c10.36,0,15.93,31.9,8.24,31.83l-36.15.07Z" style="fill:#1c293e; stroke-width:0px;"/><path d="m124.79,126.84s0-.01-.01-.02c0,0,0,0,0,0,0,0,0,.02,0,.02Z" style="fill:#1d2a40; stroke-width:0px;"/><polygon points="139.95 172.48 117.09 172.48 56.03 57.77 75.63 57.77 139.95 172.48" style="fill:#29415b; stroke-width:0px;"/><path d="m47.36,132.09s-.01.02-.01.02" style="fill:#29415b; stroke-width:0px;"/><path d="m116.82,47s-65.24,112.78-69.85,120.82c-1.1,1.92.38,4.63,2.65,4.65.71,0,17.74,0,17.74,0l70.73-125.47h-21.27Z" style="fill:#29415b; opacity:.8; stroke-width:0px;"/><path d="m75.63,57.77l34.61,61.72c2.82,7.65-7.17,26.67-12.28,17.06L56.03,57.77h19.6Z" style="fill:url(#uuid-bba88481-67d6-4d0e-966d-e325c4ee82d8); stroke-width:0px;"/><path d="m83.8,142.79c.55-.64.99-1.38,1.27-2.18,4.54-12.7-12.03-16.74-17.61-8.28l-12.79,23.17c-.14.24-.26.48-.38.72-3.39,7.29,6.71,13.38,11.92,7.26l17.59-20.69Z" style="fill:#1d2a40; opacity:.8; stroke-width:0px;"/><path d="m183.1,59.91l-.13,10.94c.07,6.28-2.04,8.39-8.33,8.31h-87.01l-10.98-19.58,106.45.33Z" style="fill:#265865; opacity:.78; stroke-width:0px;"/><path d="m119.28,135.62l18.22,32.5s-36.61-14.66-18.22-32.5Z" style="fill:#385c7f; stroke-width:0px;"/></svg>