<?xml version="1.0" encoding="UTF-8"?><svg id="uuid-361b292a-980f-4989-9d25-fc9cd40d616f" xmlns="http://www.w3.org/2000/svg" width="183.1" height="172.48" xmlns:xlink="http://www.w3.org/1999/xlink" viewBox="0 0 183.1 172.48"><defs><linearGradient id="uuid-1f6b3dde-4fe9-4596-9de8-597dd4640945" x1="15.68" y1="115.98" x2="173.1" y2="115.98" gradientUnits="userSpaceOnUse"><stop offset="0" stop-color="#34798a" stop-opacity=".7"/><stop offset="1" stop-color="#62c4dd"/></linearGradient></defs><path d="m161.34,165c-3.57-6.27-27.33-48.05-42.31-74.39-6.74-11.86-11.71-20.58-12.24-21.52l-12.07,20.89-43.68,75.62c-1.63,2.85.6,6.85,3.98,6.88h17.88l33.81-59.99,31.93,59.99h18.28c4.52-.01,6.66-3.57,4.43-7.48Z" style="fill:#b8f5ec; stroke-width:0px;"/><path d="m57.35,132.11s0-.01.01-.02c0,0,0,0,0,0" style="fill:#3a5c80; stroke-width:0px;"/><path d="m77.41,59.48l-61.18,106.11c-1.63,2.85.6,6.85,3.98,6.88h17.88l52.6-93.31h73.96c6.28.07,8.4-2.03,8.33-8.31l.13-10.94-95.69-.42Z" style="fill:url(#uuid-1f6b3dde-4fe9-4596-9de8-597dd4640945); opacity:.78; stroke-width:0px;"/></svg>