<?xml version="1.0" encoding="UTF-8"?><svg id="uuid-2093011e-9172-4ca5-a7d6-84bf0aa5fbe3" xmlns="http://www.w3.org/2000/svg" width="183.1" height="172.48" viewBox="0 0 183.1 172.48"><path d="m80.99,71.71s-47.57,81.91-54.43,93.89c-1.63,2.85.56,6.68,3.94,6.72l29.63.16,57.64-100.21-36.78-.55Z" style="fill:#385c7f; stroke-width:0px;"/><path d="m47.29,129.77c.58.56,1.06,1.4,1.75,1.65,25.1.7,19.87,25.85,19.87,25.85l19.97-34.6c-23.71,14.02-31.68,2.06-30.43-12.45-2.71,4.71-8.44,14.84-11.15,19.55Z" style="fill:#29415b; stroke-width:0px;"/><path d="m75.83,80.4s-14.96,25.41-18.41,31.59c8.71-8.42,17.69,2.79,24.11-8.66,8.13-14.5-5.7-22.93-5.7-22.93Z" style="fill:#4d8997; stroke-width:0px;"/><path d="m118.78,172.36l37.64-.02c4.52-.01,6.66-3.4,4.43-7.32-6.55-11.51-62.71-110.49-62.71-110.49h-45.27l65.9,117.83Z" style="fill:#9cd0c8; stroke-width:0px;"/><path d="m110.8,91.98c-9.24,2.3-34.69,12.42-21.32,20.21,12.57,7.31,28.11.2,32.05-11.73,1.79-4.66-2.29-10.67-10.74-8.47Z" style="fill:#32918c; stroke-width:0px;"/><path d="m141.65,131.2l-13.09-23.07c.37,24.63-35.8,17.81-35.8,17.81l26.03,46.42c-1-25.77,9.75-35.96,22.86-41.16Z" style="fill:#69bbb1; stroke-width:0px;"/><path d="m57.35,132.11s0-.01.01-.02c0,0,0,0,0,0" style="fill:#29415b; stroke-width:0px;"/><path d="m124.79,126.84s0-.01-.01-.02c0,0,0,0,0,0,0,0,0,.02,0,.02Z" style="fill:#1d2a40; stroke-width:0px;"/><path d="m139.88,172.36c.07.26-22.79.15-22.79.15L56.03,57.77h19.6l64.25,114.59Z" style="fill:#29415b; stroke-width:0px;"/><path d="m47.36,132.09s-.01.02-.01.02" style="fill:#29415b; stroke-width:0px;"/><path d="m116.82,47s-65.24,112.78-69.85,120.82c-1.1,1.92.38,4.49,2.65,4.51.71,0,17.75.02,17.75.02l70.72-125.36h-21.27Z" style="fill:#29415b; stroke-width:0px;"/><path d="m32.28,172.36c-4.07.04,3.87.05,0,0h0Z" style="fill:#29415b; stroke-width:0px;"/><path d="m75.63,57.77l34.61,61.72c2.82,7.65-7.68,24.66-12.28,17.06L56.03,57.77h19.6Z" style="fill:#1d2a40; stroke-width:0px;"/><path d="m59.14,172.27c10.22-.85,25.4-30.35,25.4-30.35,6.19-13.72-11.31-18.33-17.08-9.59l-23.34,40.15,15.01-.21Z" style="fill:#1d2a40; stroke-width:0px;"/><path d="m183.1,52.52c-.1-3.25-2.07-5.56-6-5.59C164,46.86-.01,46.93-.01,46.93c-.44,19.87,8.89,25.25,27.22,25.33h155.9v-19.75Z" style="fill:#1c293f; stroke-width:0px;"/><path d="m183.1,67.26l-.13,7.94c.07,6.28-5.04,11.39-11.33,11.31h-79.91l-11.09-19.58,102.46.33Z" style="fill:#265865; opacity:.78; stroke-width:0px;"/><path d="m119.39,137.34l17.09,29.21s-1.9,3.64-4.61,3.67c-9.57.1-23.33-22.44-12.48-32.88Z" style="fill:#385c7f; stroke-width:0px;"/><path d="m73.2,47s19.67-31.93,27.9-31.9c10.36,0,15.93,31.9,8.24,31.83l-36.15.07Z" style="fill:#1c293e; stroke-width:0px;"/></svg>