<svg id="Layer_1" data-name="Layer 1" xmlns="http://www.w3.org/2000/svg" xmlns:xlink="http://www.w3.org/1999/xlink" viewBox="0 0 1024 559"><defs><style>.cls-1,.cls-2{fill:none;}.cls-2{stroke:#000;stroke-linecap:round;stroke-linejoin:round;stroke-width:12px;stroke-dasharray:12 24;}.cls-3{fill:#488fba;}.cls-4{clip-path:url(#clip-path);}.cls-5{clip-path:url(#clip-path-2);}.cls-6{fill:#fff;}</style><clipPath id="clip-path"><polygon class="cls-1" points="186.01 327.64 0 327.64 0 89.82 143.38 89.82 186.01 327.64"/></clipPath><clipPath id="clip-path-2"><polygon class="cls-1" points="341.01 306.32 189.67 306.32 147.04 68.51 341.01 68.51 341.01 306.32"/></clipPath><symbol id="New_Symbol" data-name="New Symbol" viewBox="0 0 830.17 403.7"><line class="cls-2" x1="342.51" y1="209.57" x2="402.51" y2="209.57"/><path class="cls-3" d="M561.51,11.65c13.37-5.93,30.85.91,36.83,14.4,1-15.13,16.07-27.75,30.92-25.86S655.64,18.08,652.92,33c6.6-12.25,22.45-18.4,35.43-13.76s21.51,19.52,19.08,33.25a33.35,33.35,0,0,1,38.7,1.06c10.92,8.56,15.49,24.55,10.78,37.71C769,82.75,786.84,83.94,797.73,94s13.74,27.94,6.53,41a32.16,32.16,0,0,1,6.13,54.83c12.25,4.42,20.74,17.75,19.69,30.9s-11.55,24.91-24.34,27.27c9.8,6,15.11,18.71,12.52,30S805.41,298.32,794,299.33c6.19,9.66,4.9,23.57-2.94,31.9s-21.49,10.27-31.29,4.45c2.59,12.25-3.43,25.87-14.17,32.06a29.77,29.77,0,0,1-34.4-4.06c3.4,13.1-5.43,28.15-18.41,31.36s-27.65-6-30.57-19.25c.33,13.57-10.84,26.42-24.16,27.79s-26.8-8.95-29.17-22.32a29.06,29.06,0,0,1-30.7,12.19c-11.37-2.86-20.41-13.5-21.51-25.33-5.84,10-19.3,14.69-30,10.35S509.48,361.34,512.1,350c-7.59,6.58-26.59,8.58-37.59-2.42-15.58-15.57-13-32.2-5-38-27-1-38.64-33-27.49-52.23-9.79-.76-18.07-10.32-17.56-20.26s9.74-18.57,19.55-18.29c-11.78-.38-22.13-11.67-21.64-23.62s11.72-22.33,23.49-21.72a26.22,26.22,0,0,1-8.92-25.31,25.83,25.83,0,0,1,18.44-19.3c-8.12-6.72-10.53-19.59-5.39-28.86s17.23-13.87,27.12-10.32a21.77,21.77,0,0,1,4.41-25.1,21,21,0,0,1,25-2.14c-5-9.66.12-23.18,10.17-27,9.55-3.65,19.93,8.12,27.41,1.7,2.61-2.24,3-10.63,5-14A27.62,27.62,0,0,1,561.51,11.65Z"/><g class="cls-4"><path d="M176.12,316.42s-6.2-18.36-8.71-25.89l-8.54-24.38H83l-8.54,24.38c-4,11.3-6.56,17.05-9.31,26.21H19.31c2.75-7.33,6.13-15.41,11.41-29.73L85.49,139c4.53-12.56,6.21-18.37,9-25.7l53.11-.43c1.51,6.53,3,11.81,8.54,26.13l55.28,148c4.78,12.81,9.3,23.87,12.31,30.15ZM124.44,159.61,120.88,149l-3.73,10.65L93.53,230.72h54.78Z"/></g><g class="cls-5"><path d="M105.49,109.66c15,.93,26.75,2.12,46.48,3.51.51,0,.76,0,5.53,0,.25-3.77.25-3.77,1-13.06a62.36,62.36,0,0,0,.08-9.71l33-4.58s.85,9.51-.41,26.35c42-2.51,73.63-6.79,94.48-13.07,0,0-9.76,28-13.43,36.2-26.13,3.77-61.7,7-83.31,7.52a78.29,78.29,0,0,1-.5,9.3c-.25,3-.25,5.53-.25,10.3,12.06-2.51,18.34-3,31.41-3a69,69,0,0,1,8.79.75c2.51-8,5.37-17.52,5.37-17.52l32.82,9.48s-.75,1.76-3.26,8c-1.76,5-1.76,5-2.77,7,10.31,3,17.59,6.53,25.89,13.31,15.07,12.32,22.36,27.64,22.36,47.24,0,28.9-16.08,52.27-45.23,65.84-12.56,5.78-51,12.31-51,12.31l-12.7-29.48s29.54-8,42.35-13c19.35-7.79,30.15-21.35,30.15-37.94,0-13.82-6.78-22.86-22.11-29.9-13.32,28.9-25.63,47.24-45,66.59-23.62,23.87-45,35.18-66.33,35.18-25.63,0-43-19.1-43-47.24,0-21.11,8.79-41.21,25.13-57.29,9.8-10.05,19.35-16.09,34.42-22.62q0-10.54.76-26.38h-7c-4.77,0-6.53,0-20.1-.5-3.27-.26-7.29-.26-12.06-.51h-4.53a39.46,39.46,0,0,0-6.78.51Zm24.12,137.19c0,10.55,4.52,16.84,12.56,16.84,6,0,11.56-2.27,18.1-7.29-3-18.34-4-33.17-4.28-52C139.16,215.69,129.61,230.77,129.61,246.85Zm60-13.07C205,214.94,211,205.39,218.56,188.3c-2.51-.5-2.51-.5-7-.5a68.18,68.18,0,0,0-23.88,4C187.91,210.92,188.41,220.72,189.66,233.78Z"/></g><path class="cls-6" d="M658.31,265.12H588.1a11.7,11.7,0,0,0,0,23.4h70.21a11.7,11.7,0,1,0,0-23.4Zm-11.7,35.1H599.8a11.7,11.7,0,1,0,0,23.4h46.81a11.7,11.7,0,0,0,0-23.4Z"/><path class="cls-6" d="M580.26,246.28a7.07,7.07,0,0,0,7,7.14H659a7.07,7.07,0,0,0,7-7.14c4.33-42.24,27.38-46.69,27.38-85.42,0-39.44-31.47-71.27-70.21-71.27S553,121.42,553,160.86C553,199.59,576.05,204,580.26,246.28Z"/></symbol></defs><title>Symbol</title><use width="830.17" height="403.7" transform="translate(109.49 77.43)" xlink:href="#New_Symbol"/></svg>